<svg version="1.1" id="Layer_1" xmlns="http://www.w3.org/2000/svg" xmlns:xlink="http://www.w3.org/1999/xlink" x="0px" y="0px"
	 width="345px" height="310px" viewBox="0 0 345 310" enable-background="new 0 0 345 310" xml:space="preserve">
<g>
	<path fill="#0C7189" d="M200.001,268.926l0.083-91.153l73.304-0.273l0.09-20.165l-73.695-0.001l0.438-62.709l73.167-0.091
		l-0.082-19.013l-91.672,0.182l0.246,155.562L57,231.537l0.082-107.255l48.542,0.182l-0.247,53.219l23.955,0.651l1.666-156
		L130.9,10.314C70.032,29.972,26,87.089,26,154.5C26,238.171,93.829,306,177.5,306c7.646,0,15.158-0.572,22.5-1.666L200.001,268.926
		z"/>
	<path fill="#0C7189" d="M177.5,3c-10.616,0-20.976,1.097-30.976,3.175l0.125,16.159v171.753L88.167,194l0.333-52.5l-15.166,0
		l-0.167,74.117l92.561-0.182l0.41-157.29l123.158,0.182l-0.573,53.946l-71.726,0.061v27.333l72.548,0.443l-0.215,54.224l-72,0.333
		l-0.333,74.333l0.226,31.726C281.623,283.274,329,224.424,329,154.5C329,70.829,261.171,3,177.5,3z"/>
</g>
</svg>
