<svg version="1.1" id="Layer_1" xmlns="http://www.w3.org/2000/svg" xmlns:xlink="http://www.w3.org/1999/xlink" x="0px" y="0px"
	 width="74.333px" height="75px" viewBox="0 0 74.333 75" enable-background="new 0 0 74.333 75" xml:space="preserve">
<g>
	<path fill="#0C7189" d="M41.865,64.102l0.019-21.058l16.935-0.063l0.021-4.658l-17.025,0l0.101-14.487l16.903-0.021L58.8,19.421
		l-21.178,0.042l0.057,35.938l-28.85,0.063l0.019-24.778l11.214,0.042l-0.057,12.294l5.534,0.151l0.384-36.04L25.9,4.356
		C11.839,8.898,1.667,22.093,1.667,37.667c0,19.33,15.67,35,35,35c1.767,0,3.502-0.132,5.198-0.385L41.865,64.102z"/>
	<path fill="#0C7189" d="M36.667,2.667c-2.453,0-4.846,0.253-7.156,0.733l0.029,3.733v39.679l-13.511-0.02l0.077-12.128h-3.504
		l-0.039,17.123l21.384-0.042l0.095-36.337l28.453,0.042l-0.133,12.463l-16.57,0.015v6.314l16.76,0.103l-0.05,12.527l-16.633,0.077
		l-0.077,17.172l0.052,7.33c14.878-4.032,25.824-17.628,25.824-33.782C71.667,18.337,55.996,2.667,36.667,2.667z"/>
</g>
</svg>
